<mxfile host="app.diagrams.net" agent="Mozilla/5.0 (Macintosh; Intel Mac OS X 10_15_7) AppleWebKit/537.36 (KHTML, like Gecko) Chrome/133.0.0.0 Safari/537.36" version="26.0.16">
  <diagram name="Page-1" id="y3PJ3TVUChjErgTNIK0o">
    <mxGraphModel dx="889" dy="1054" grid="1" gridSize="10" guides="1" tooltips="1" connect="1" arrows="1" fold="1" page="1" pageScale="1" pageWidth="850" pageHeight="1100" math="0" shadow="0">
      <root>
        <mxCell id="0" />
        <mxCell id="1" parent="0" />
        <mxCell id="-mJYq5-SYKwadAyyV86o-1" value="User" style="shape=umlActor;verticalLabelPosition=bottom;verticalAlign=top;html=1;outlineConnect=0;" vertex="1" parent="1">
          <mxGeometry x="90" y="80" width="30" height="60" as="geometry" />
        </mxCell>
        <mxCell id="-mJYq5-SYKwadAyyV86o-2" value="LoginForm" style="shape=umlBoundary;whiteSpace=wrap;html=1;verticalAlign=top;fontSize=12;labelPosition=center;verticalLabelPosition=bottom;align=center;" vertex="1" parent="1">
          <mxGeometry x="250" y="80" width="70" height="60" as="geometry" />
        </mxCell>
        <mxCell id="-mJYq5-SYKwadAyyV86o-3" value="LoginController" style="ellipse;shape=umlControl;whiteSpace=wrap;html=1;labelPosition=center;verticalLabelPosition=bottom;align=center;verticalAlign=top;" vertex="1" parent="1">
          <mxGeometry x="460" y="71" width="60" height="70" as="geometry" />
        </mxCell>
        <mxCell id="-mJYq5-SYKwadAyyV86o-4" value="User Database" style="shape=cylinder3;html=1;boundedLbl=1;backgroundOutline=1;size=15;labelPosition=center;verticalLabelPosition=bottom;align=center;verticalAlign=top;" vertex="1" parent="1">
          <mxGeometry x="680" y="80" width="40" height="60" as="geometry" />
        </mxCell>
        <mxCell id="-mJYq5-SYKwadAyyV86o-7" value="" style="endArrow=none;dashed=1;html=1;rounded=0;" edge="1" parent="1">
          <mxGeometry width="50" height="50" relative="1" as="geometry">
            <mxPoint x="100" y="1000" as="sourcePoint" />
            <mxPoint x="100" y="170" as="targetPoint" />
          </mxGeometry>
        </mxCell>
        <mxCell id="-mJYq5-SYKwadAyyV86o-8" value="" style="endArrow=none;dashed=1;html=1;rounded=0;" edge="1" parent="1">
          <mxGeometry width="50" height="50" relative="1" as="geometry">
            <mxPoint x="290" y="1000" as="sourcePoint" />
            <mxPoint x="290" y="170" as="targetPoint" />
          </mxGeometry>
        </mxCell>
        <mxCell id="-mJYq5-SYKwadAyyV86o-9" value="" style="endArrow=none;dashed=1;html=1;rounded=0;" edge="1" parent="1">
          <mxGeometry width="50" height="50" relative="1" as="geometry">
            <mxPoint x="490" y="1000" as="sourcePoint" />
            <mxPoint x="490" y="170" as="targetPoint" />
          </mxGeometry>
        </mxCell>
        <mxCell id="-mJYq5-SYKwadAyyV86o-10" value="" style="endArrow=none;dashed=1;html=1;rounded=0;" edge="1" parent="1">
          <mxGeometry width="50" height="50" relative="1" as="geometry">
            <mxPoint x="699.55" y="1000" as="sourcePoint" />
            <mxPoint x="699.55" y="170" as="targetPoint" />
          </mxGeometry>
        </mxCell>
        <mxCell id="-mJYq5-SYKwadAyyV86o-11" value="Enter login information" style="endArrow=classic;html=1;rounded=0;labelPosition=center;verticalLabelPosition=top;align=center;verticalAlign=bottom;fontFamily=Helvetica;fontSize=12;fontColor=default;" edge="1" parent="1">
          <mxGeometry width="50" height="50" relative="1" as="geometry">
            <mxPoint x="100" y="200" as="sourcePoint" />
            <mxPoint x="290" y="200" as="targetPoint" />
          </mxGeometry>
        </mxCell>
        <mxCell id="-mJYq5-SYKwadAyyV86o-12" value="Validate" style="endArrow=classic;html=1;rounded=0;labelPosition=center;verticalLabelPosition=middle;align=center;verticalAlign=middle;fontFamily=Helvetica;fontSize=12;fontColor=default;" edge="1" parent="1">
          <mxGeometry width="50" height="50" relative="1" as="geometry">
            <mxPoint x="290" y="210" as="sourcePoint" />
            <mxPoint x="290" y="250" as="targetPoint" />
            <Array as="points">
              <mxPoint x="390" y="210" />
              <mxPoint x="390" y="250" />
            </Array>
          </mxGeometry>
        </mxCell>
        <mxCell id="-mJYq5-SYKwadAyyV86o-13" value="alt" style="shape=umlFrame;whiteSpace=wrap;html=1;pointerEvents=0;strokeColor=default;align=center;verticalAlign=top;fontFamily=Helvetica;fontSize=12;fontColor=default;fillColor=default;" vertex="1" parent="1">
          <mxGeometry y="260" width="800" height="710" as="geometry" />
        </mxCell>
        <mxCell id="-mJYq5-SYKwadAyyV86o-14" value="All validation pass" style="text;align=center;fontStyle=1;verticalAlign=middle;spacingLeft=3;spacingRight=3;strokeColor=none;rotatable=0;points=[[0,0.5],[1,0.5]];portConstraint=eastwest;html=1;fontFamily=Helvetica;fontSize=12;fontColor=default;" vertex="1" parent="1">
          <mxGeometry x="120" y="260" width="80" height="26" as="geometry" />
        </mxCell>
        <mxCell id="-mJYq5-SYKwadAyyV86o-15" value="Send login information" style="endArrow=classic;html=1;rounded=0;labelPosition=center;verticalLabelPosition=top;align=center;verticalAlign=bottom;fontFamily=Helvetica;fontSize=12;fontColor=default;" edge="1" parent="1">
          <mxGeometry width="50" height="50" relative="1" as="geometry">
            <mxPoint x="290" y="310" as="sourcePoint" />
            <mxPoint x="490" y="310" as="targetPoint" />
          </mxGeometry>
        </mxCell>
        <mxCell id="-mJYq5-SYKwadAyyV86o-16" value="Check credential existed" style="endArrow=classic;html=1;rounded=0;labelPosition=center;verticalLabelPosition=top;align=center;verticalAlign=bottom;fontFamily=Helvetica;fontSize=12;fontColor=default;" edge="1" parent="1">
          <mxGeometry width="50" height="50" relative="1" as="geometry">
            <mxPoint x="490" y="330" as="sourcePoint" />
            <mxPoint x="700" y="330" as="targetPoint" />
          </mxGeometry>
        </mxCell>
        <mxCell id="-mJYq5-SYKwadAyyV86o-17" value="alt" style="shape=umlFrame;whiteSpace=wrap;html=1;pointerEvents=0;strokeColor=default;align=center;verticalAlign=top;fontFamily=Helvetica;fontSize=12;fontColor=default;fillColor=default;" vertex="1" parent="1">
          <mxGeometry x="30" y="340" width="750" height="600" as="geometry" />
        </mxCell>
        <mxCell id="-mJYq5-SYKwadAyyV86o-18" value="Email is not existed" style="text;align=center;fontStyle=1;verticalAlign=middle;spacingLeft=3;spacingRight=3;strokeColor=none;rotatable=0;points=[[0,0.5],[1,0.5]];portConstraint=eastwest;html=1;fontFamily=Helvetica;fontSize=12;fontColor=default;" vertex="1" parent="1">
          <mxGeometry x="140" y="340" width="80" height="26" as="geometry" />
        </mxCell>
        <mxCell id="-mJYq5-SYKwadAyyV86o-19" value="Email is not existed" style="endArrow=classic;html=1;rounded=0;dashed=1;labelPosition=center;verticalLabelPosition=top;align=center;verticalAlign=bottom;fontFamily=Helvetica;fontSize=12;fontColor=default;" edge="1" parent="1">
          <mxGeometry width="50" height="50" relative="1" as="geometry">
            <mxPoint x="700" y="370" as="sourcePoint" />
            <mxPoint x="490" y="370" as="targetPoint" />
          </mxGeometry>
        </mxCell>
        <mxCell id="-mJYq5-SYKwadAyyV86o-20" value="Return error message" style="endArrow=classic;html=1;rounded=0;dashed=1;labelPosition=center;verticalLabelPosition=top;align=center;verticalAlign=bottom;fontFamily=Helvetica;fontSize=12;fontColor=default;" edge="1" parent="1">
          <mxGeometry width="50" height="50" relative="1" as="geometry">
            <mxPoint x="490" y="390" as="sourcePoint" />
            <mxPoint x="290" y="390" as="targetPoint" />
          </mxGeometry>
        </mxCell>
        <mxCell id="-mJYq5-SYKwadAyyV86o-21" value="Show error message" style="endArrow=classic;html=1;rounded=0;dashed=1;labelPosition=center;verticalLabelPosition=top;align=center;verticalAlign=bottom;fontFamily=Helvetica;fontSize=12;fontColor=default;" edge="1" parent="1">
          <mxGeometry width="50" height="50" relative="1" as="geometry">
            <mxPoint x="290" y="420" as="sourcePoint" />
            <mxPoint x="100" y="420" as="targetPoint" />
          </mxGeometry>
        </mxCell>
        <mxCell id="-mJYq5-SYKwadAyyV86o-22" value="" style="endArrow=none;dashed=1;html=1;rounded=0;fontFamily=Helvetica;fontSize=12;fontColor=default;exitX=0.001;exitY=0.224;exitDx=0;exitDy=0;exitPerimeter=0;" edge="1" parent="1">
          <mxGeometry width="50" height="50" relative="1" as="geometry">
            <mxPoint x="63.00000000000003" y="439.99999999999994" as="sourcePoint" />
            <mxPoint x="750" y="439" as="targetPoint" />
          </mxGeometry>
        </mxCell>
        <mxCell id="-mJYq5-SYKwadAyyV86o-23" value="Email is existed" style="text;align=center;fontStyle=1;verticalAlign=middle;spacingLeft=3;spacingRight=3;strokeColor=none;rotatable=0;points=[[0,0.5],[1,0.5]];portConstraint=eastwest;html=1;fontFamily=Helvetica;fontSize=12;fontColor=default;" vertex="1" parent="1">
          <mxGeometry x="120" y="440" width="80" height="26" as="geometry" />
        </mxCell>
        <mxCell id="-mJYq5-SYKwadAyyV86o-24" value="Email is existed" style="endArrow=classic;html=1;rounded=0;dashed=1;labelPosition=center;verticalLabelPosition=top;align=center;verticalAlign=bottom;fontFamily=Helvetica;fontSize=12;fontColor=default;" edge="1" parent="1">
          <mxGeometry width="50" height="50" relative="1" as="geometry">
            <mxPoint x="700" y="466" as="sourcePoint" />
            <mxPoint x="490" y="466" as="targetPoint" />
          </mxGeometry>
        </mxCell>
        <mxCell id="-mJYq5-SYKwadAyyV86o-25" value="Check activation status" style="endArrow=classic;html=1;rounded=0;labelPosition=center;verticalLabelPosition=top;align=center;verticalAlign=bottom;fontFamily=Helvetica;fontSize=12;fontColor=default;" edge="1" parent="1">
          <mxGeometry width="50" height="50" relative="1" as="geometry">
            <mxPoint x="490" y="490" as="sourcePoint" />
            <mxPoint x="700" y="490" as="targetPoint" />
          </mxGeometry>
        </mxCell>
        <mxCell id="-mJYq5-SYKwadAyyV86o-33" value="" style="endArrow=none;dashed=1;html=1;rounded=0;fontFamily=Helvetica;fontSize=12;fontColor=default;exitX=0.001;exitY=0.224;exitDx=0;exitDy=0;exitPerimeter=0;" edge="1" parent="1">
          <mxGeometry width="50" height="50" relative="1" as="geometry">
            <mxPoint x="78.00000000000003" y="616" as="sourcePoint" />
            <mxPoint x="730" y="614" as="targetPoint" />
          </mxGeometry>
        </mxCell>
        <mxCell id="-mJYq5-SYKwadAyyV86o-35" value="alt" style="shape=umlFrame;whiteSpace=wrap;html=1;pointerEvents=0;strokeColor=default;align=center;verticalAlign=top;fontFamily=Helvetica;fontSize=12;fontColor=default;fillColor=default;" vertex="1" parent="1">
          <mxGeometry x="50" y="520" width="700" height="390" as="geometry" />
        </mxCell>
        <mxCell id="-mJYq5-SYKwadAyyV86o-36" value="Unactivated" style="text;align=center;fontStyle=1;verticalAlign=middle;spacingLeft=3;spacingRight=3;strokeColor=none;rotatable=0;points=[[0,0.5],[1,0.5]];portConstraint=eastwest;html=1;fontFamily=Helvetica;fontSize=12;fontColor=default;" vertex="1" parent="1">
          <mxGeometry x="110" y="520" width="80" height="26" as="geometry" />
        </mxCell>
        <mxCell id="-mJYq5-SYKwadAyyV86o-37" value="Account is unactivated" style="endArrow=classic;html=1;rounded=0;dashed=1;labelPosition=center;verticalLabelPosition=top;align=center;verticalAlign=bottom;fontFamily=Helvetica;fontSize=12;fontColor=default;" edge="1" parent="1">
          <mxGeometry width="50" height="50" relative="1" as="geometry">
            <mxPoint x="700" y="546" as="sourcePoint" />
            <mxPoint x="490" y="546" as="targetPoint" />
          </mxGeometry>
        </mxCell>
        <mxCell id="-mJYq5-SYKwadAyyV86o-38" value="Return error message" style="endArrow=classic;html=1;rounded=0;dashed=1;labelPosition=center;verticalLabelPosition=top;align=center;verticalAlign=bottom;fontFamily=Helvetica;fontSize=12;fontColor=default;" edge="1" parent="1">
          <mxGeometry width="50" height="50" relative="1" as="geometry">
            <mxPoint x="490" y="570" as="sourcePoint" />
            <mxPoint x="290" y="570" as="targetPoint" />
          </mxGeometry>
        </mxCell>
        <mxCell id="-mJYq5-SYKwadAyyV86o-39" value="Show error message" style="endArrow=classic;html=1;rounded=0;dashed=1;labelPosition=center;verticalLabelPosition=top;align=center;verticalAlign=bottom;fontFamily=Helvetica;fontSize=12;fontColor=default;" edge="1" parent="1">
          <mxGeometry width="50" height="50" relative="1" as="geometry">
            <mxPoint x="290" y="589.41" as="sourcePoint" />
            <mxPoint x="100" y="589.41" as="targetPoint" />
          </mxGeometry>
        </mxCell>
        <mxCell id="-mJYq5-SYKwadAyyV86o-40" value="Activated" style="text;align=center;fontStyle=1;verticalAlign=middle;spacingLeft=3;spacingRight=3;strokeColor=none;rotatable=0;points=[[0,0.5],[1,0.5]];portConstraint=eastwest;html=1;fontFamily=Helvetica;fontSize=12;fontColor=default;" vertex="1" parent="1">
          <mxGeometry x="100" y="617" width="80" height="26" as="geometry" />
        </mxCell>
        <mxCell id="-mJYq5-SYKwadAyyV86o-42" value="alt" style="shape=umlFrame;whiteSpace=wrap;html=1;pointerEvents=0;strokeColor=default;align=center;verticalAlign=top;fontFamily=Helvetica;fontSize=12;fontColor=default;fillColor=default;" vertex="1" parent="1">
          <mxGeometry x="70" y="690" width="660" height="190" as="geometry" />
        </mxCell>
        <mxCell id="-mJYq5-SYKwadAyyV86o-43" value="Account is activated" style="endArrow=classic;html=1;rounded=0;dashed=1;labelPosition=center;verticalLabelPosition=top;align=center;verticalAlign=bottom;fontFamily=Helvetica;fontSize=12;fontColor=default;" edge="1" parent="1">
          <mxGeometry width="50" height="50" relative="1" as="geometry">
            <mxPoint x="700" y="641.5699999999999" as="sourcePoint" />
            <mxPoint x="490" y="641.5699999999999" as="targetPoint" />
          </mxGeometry>
        </mxCell>
        <mxCell id="-mJYq5-SYKwadAyyV86o-44" value="Check password" style="endArrow=classic;html=1;rounded=0;labelPosition=center;verticalLabelPosition=top;align=center;verticalAlign=bottom;fontFamily=Helvetica;fontSize=12;fontColor=default;" edge="1" parent="1">
          <mxGeometry width="50" height="50" relative="1" as="geometry">
            <mxPoint x="490" y="670" as="sourcePoint" />
            <mxPoint x="700" y="670" as="targetPoint" />
          </mxGeometry>
        </mxCell>
        <mxCell id="-mJYq5-SYKwadAyyV86o-45" value="Password is incorrect" style="text;align=center;fontStyle=1;verticalAlign=middle;spacingLeft=3;spacingRight=3;strokeColor=none;rotatable=0;points=[[0,0.5],[1,0.5]];portConstraint=eastwest;html=1;fontFamily=Helvetica;fontSize=12;fontColor=default;" vertex="1" parent="1">
          <mxGeometry x="160" y="690" width="80" height="26" as="geometry" />
        </mxCell>
        <mxCell id="-mJYq5-SYKwadAyyV86o-46" value="Password is incorrect" style="endArrow=classic;html=1;rounded=0;dashed=1;labelPosition=center;verticalLabelPosition=top;align=center;verticalAlign=bottom;fontFamily=Helvetica;fontSize=12;fontColor=default;" edge="1" parent="1">
          <mxGeometry width="50" height="50" relative="1" as="geometry">
            <mxPoint x="700" y="716" as="sourcePoint" />
            <mxPoint x="490" y="716" as="targetPoint" />
          </mxGeometry>
        </mxCell>
        <mxCell id="-mJYq5-SYKwadAyyV86o-48" value="Return error message" style="endArrow=classic;html=1;rounded=0;dashed=1;labelPosition=center;verticalLabelPosition=top;align=center;verticalAlign=bottom;fontFamily=Helvetica;fontSize=12;fontColor=default;" edge="1" parent="1">
          <mxGeometry width="50" height="50" relative="1" as="geometry">
            <mxPoint x="490" y="740" as="sourcePoint" />
            <mxPoint x="290" y="740" as="targetPoint" />
          </mxGeometry>
        </mxCell>
        <mxCell id="-mJYq5-SYKwadAyyV86o-49" value="Show error message" style="endArrow=classic;html=1;rounded=0;dashed=1;labelPosition=center;verticalLabelPosition=top;align=center;verticalAlign=bottom;fontFamily=Helvetica;fontSize=12;fontColor=default;" edge="1" parent="1">
          <mxGeometry width="50" height="50" relative="1" as="geometry">
            <mxPoint x="290" y="764.29" as="sourcePoint" />
            <mxPoint x="100" y="764.29" as="targetPoint" />
          </mxGeometry>
        </mxCell>
        <mxCell id="-mJYq5-SYKwadAyyV86o-50" value="" style="endArrow=none;dashed=1;html=1;rounded=0;fontFamily=Helvetica;fontSize=12;fontColor=default;exitX=0.001;exitY=0.224;exitDx=0;exitDy=0;exitPerimeter=0;" edge="1" parent="1">
          <mxGeometry width="50" height="50" relative="1" as="geometry">
            <mxPoint x="79.00000000000003" y="782" as="sourcePoint" />
            <mxPoint x="720" y="780" as="targetPoint" />
          </mxGeometry>
        </mxCell>
        <mxCell id="-mJYq5-SYKwadAyyV86o-51" value="Password is correct" style="text;align=center;fontStyle=1;verticalAlign=middle;spacingLeft=3;spacingRight=3;strokeColor=none;rotatable=0;points=[[0,0.5],[1,0.5]];portConstraint=eastwest;html=1;fontFamily=Helvetica;fontSize=12;fontColor=default;" vertex="1" parent="1">
          <mxGeometry x="120" y="780" width="80" height="26" as="geometry" />
        </mxCell>
        <mxCell id="-mJYq5-SYKwadAyyV86o-52" value="Return authentication information" style="endArrow=classic;html=1;rounded=0;dashed=1;labelPosition=center;verticalLabelPosition=top;align=center;verticalAlign=bottom;fontFamily=Helvetica;fontSize=12;fontColor=default;" edge="1" parent="1">
          <mxGeometry width="50" height="50" relative="1" as="geometry">
            <mxPoint x="700" y="806" as="sourcePoint" />
            <mxPoint x="490" y="806" as="targetPoint" />
          </mxGeometry>
        </mxCell>
        <mxCell id="-mJYq5-SYKwadAyyV86o-53" value="Return authentication information" style="endArrow=classic;html=1;rounded=0;dashed=1;labelPosition=center;verticalLabelPosition=top;align=center;verticalAlign=bottom;fontFamily=Helvetica;fontSize=12;fontColor=default;" edge="1" parent="1">
          <mxGeometry width="50" height="50" relative="1" as="geometry">
            <mxPoint x="490" y="830" as="sourcePoint" />
            <mxPoint x="290" y="830" as="targetPoint" />
          </mxGeometry>
        </mxCell>
        <mxCell id="-mJYq5-SYKwadAyyV86o-54" value="Notice user login successfully" style="endArrow=classic;html=1;rounded=0;dashed=1;labelPosition=center;verticalLabelPosition=top;align=center;verticalAlign=bottom;fontFamily=Helvetica;fontSize=12;fontColor=default;" edge="1" parent="1">
          <mxGeometry width="50" height="50" relative="1" as="geometry">
            <mxPoint x="290" y="860" as="sourcePoint" />
            <mxPoint x="100" y="860" as="targetPoint" />
          </mxGeometry>
        </mxCell>
      </root>
    </mxGraphModel>
  </diagram>
</mxfile>
